<mxfile host="app.diagrams.net" modified="2022-11-25T15:03:55.239Z" agent="5.0 (Windows NT 10.0; Win64; x64) AppleWebKit/537.36 (KHTML, like Gecko) Chrome/107.0.0.0 Safari/537.36" etag="BSWP_HZ4oqwbY43BVG6X" version="20.6.0" type="github">
  <diagram id="gvGgr7Zljciwrfyh9hsr" name="Page-1">
    <mxGraphModel dx="1422" dy="786" grid="1" gridSize="10" guides="1" tooltips="1" connect="1" arrows="1" fold="1" page="1" pageScale="1" pageWidth="850" pageHeight="1100" math="0" shadow="0">
      <root>
        <mxCell id="0" />
        <mxCell id="1" parent="0" />
        <mxCell id="EPbkJp4kcHKTeBEqlPCA-3" value="" style="sketch=0;pointerEvents=1;shadow=0;dashed=0;html=1;strokeColor=none;labelPosition=center;verticalLabelPosition=bottom;verticalAlign=top;outlineConnect=0;align=center;shape=mxgraph.office.users.user;fillColor=#2072B8;" parent="1" vertex="1">
          <mxGeometry x="20" y="200" width="40" height="40" as="geometry" />
        </mxCell>
        <mxCell id="EPbkJp4kcHKTeBEqlPCA-6" value="" style="rounded=1;whiteSpace=wrap;html=1;fillColor=#f5f5f5;fontColor=#333333;strokeColor=#666666;" parent="1" vertex="1">
          <mxGeometry x="210" y="200" width="90" height="40" as="geometry" />
        </mxCell>
        <mxCell id="EPbkJp4kcHKTeBEqlPCA-7" value="Form Club Service" style="text;html=1;strokeColor=none;fillColor=none;align=center;verticalAlign=middle;whiteSpace=wrap;rounded=0;" parent="1" vertex="1">
          <mxGeometry x="225" y="205" width="60" height="30" as="geometry" />
        </mxCell>
        <mxCell id="EPbkJp4kcHKTeBEqlPCA-9" value="&lt;b&gt;Sports Enthusiast&lt;/b&gt;" style="text;html=1;strokeColor=none;fillColor=none;align=center;verticalAlign=middle;whiteSpace=wrap;rounded=0;" parent="1" vertex="1">
          <mxGeometry x="10" y="240" width="60" height="30" as="geometry" />
        </mxCell>
        <mxCell id="EPbkJp4kcHKTeBEqlPCA-16" value="" style="sketch=0;pointerEvents=1;shadow=0;dashed=0;html=1;strokeColor=none;labelPosition=center;verticalLabelPosition=bottom;verticalAlign=top;outlineConnect=0;align=center;shape=mxgraph.office.users.users;fillColor=#2072B8;" parent="1" vertex="1">
          <mxGeometry x="450" y="200" width="40" height="40" as="geometry" />
        </mxCell>
        <mxCell id="EPbkJp4kcHKTeBEqlPCA-17" value="" style="endArrow=classic;html=1;rounded=0;exitX=1;exitY=0.5;exitDx=0;exitDy=0;" parent="1" source="EPbkJp4kcHKTeBEqlPCA-6" target="EPbkJp4kcHKTeBEqlPCA-16" edge="1">
          <mxGeometry width="50" height="50" relative="1" as="geometry">
            <mxPoint x="420" y="260" as="sourcePoint" />
            <mxPoint x="470" y="210" as="targetPoint" />
          </mxGeometry>
        </mxCell>
        <mxCell id="EPbkJp4kcHKTeBEqlPCA-18" value="&lt;b&gt;Club&lt;/b&gt;" style="text;html=1;strokeColor=none;fillColor=none;align=center;verticalAlign=middle;whiteSpace=wrap;rounded=0;" parent="1" vertex="1">
          <mxGeometry x="460" y="240" width="40" height="20" as="geometry" />
        </mxCell>
        <mxCell id="EPbkJp4kcHKTeBEqlPCA-19" value="" style="rounded=1;whiteSpace=wrap;html=1;fillColor=#f5f5f5;strokeColor=#666666;fontColor=#333333;" parent="1" vertex="1">
          <mxGeometry x="420" y="300" width="110" height="60" as="geometry" />
        </mxCell>
        <mxCell id="EPbkJp4kcHKTeBEqlPCA-20" value="Create Tournament / League Service" style="text;html=1;strokeColor=none;fillColor=none;align=center;verticalAlign=middle;whiteSpace=wrap;rounded=0;" parent="1" vertex="1">
          <mxGeometry x="425" y="310" width="100" height="40" as="geometry" />
        </mxCell>
        <mxCell id="EPbkJp4kcHKTeBEqlPCA-22" value="" style="rounded=1;whiteSpace=wrap;html=1;fillColor=#f5f5f5;fontColor=#333333;strokeColor=#666666;" parent="1" vertex="1">
          <mxGeometry x="700" y="190" width="120" height="60" as="geometry" />
        </mxCell>
        <mxCell id="EPbkJp4kcHKTeBEqlPCA-23" value="Subscribe Tournament / League Service" style="text;html=1;strokeColor=none;fillColor=none;align=center;verticalAlign=middle;whiteSpace=wrap;rounded=0;" parent="1" vertex="1">
          <mxGeometry x="710" y="200" width="100" height="40" as="geometry" />
        </mxCell>
        <mxCell id="EPbkJp4kcHKTeBEqlPCA-24" value="" style="ellipse;whiteSpace=wrap;html=1;aspect=fixed;fillColor=#d5e8d4;strokeColor=#82b366;" parent="1" vertex="1">
          <mxGeometry x="550" y="190" width="50" height="50" as="geometry" />
        </mxCell>
        <mxCell id="EPbkJp4kcHKTeBEqlPCA-25" value="&lt;font color=&quot;#006600&quot;&gt;&lt;b&gt;Paid&lt;/b&gt;&lt;/font&gt;" style="text;html=1;strokeColor=none;fillColor=none;align=center;verticalAlign=middle;whiteSpace=wrap;rounded=0;" parent="1" vertex="1">
          <mxGeometry x="545" y="200" width="60" height="30" as="geometry" />
        </mxCell>
        <mxCell id="EPbkJp4kcHKTeBEqlPCA-26" value="" style="endArrow=classic;html=1;rounded=0;exitX=1;exitY=0.5;exitDx=0;exitDy=0;exitPerimeter=0;" parent="1" source="EPbkJp4kcHKTeBEqlPCA-16" edge="1">
          <mxGeometry width="50" height="50" relative="1" as="geometry">
            <mxPoint x="500" y="320" as="sourcePoint" />
            <mxPoint x="550" y="220" as="targetPoint" />
          </mxGeometry>
        </mxCell>
        <mxCell id="EPbkJp4kcHKTeBEqlPCA-27" value="" style="endArrow=classic;html=1;rounded=0;entryX=0;entryY=0.5;entryDx=0;entryDy=0;" parent="1" target="EPbkJp4kcHKTeBEqlPCA-22" edge="1">
          <mxGeometry width="50" height="50" relative="1" as="geometry">
            <mxPoint x="600" y="220" as="sourcePoint" />
            <mxPoint x="650" y="200" as="targetPoint" />
          </mxGeometry>
        </mxCell>
        <mxCell id="EPbkJp4kcHKTeBEqlPCA-30" value="" style="rounded=1;whiteSpace=wrap;html=1;fillColor=#f5f5f5;fontColor=#333333;strokeColor=#666666;" parent="1" vertex="1">
          <mxGeometry x="700" y="30" width="120" height="60" as="geometry" />
        </mxCell>
        <mxCell id="EPbkJp4kcHKTeBEqlPCA-31" value="" style="endArrow=classic;html=1;rounded=0;exitX=0.375;exitY=1;exitDx=0;exitDy=0;entryX=0.5;entryY=0;entryDx=0;entryDy=0;exitPerimeter=0;" parent="1" source="EPbkJp4kcHKTeBEqlPCA-18" target="EPbkJp4kcHKTeBEqlPCA-19" edge="1">
          <mxGeometry width="50" height="50" relative="1" as="geometry">
            <mxPoint x="480" y="260" as="sourcePoint" />
            <mxPoint x="480" y="300" as="targetPoint" />
          </mxGeometry>
        </mxCell>
        <mxCell id="EPbkJp4kcHKTeBEqlPCA-34" value="" style="endArrow=classic;html=1;rounded=0;entryX=0;entryY=0.5;entryDx=0;entryDy=0;" parent="1" target="EPbkJp4kcHKTeBEqlPCA-30" edge="1">
          <mxGeometry width="50" height="50" relative="1" as="geometry">
            <mxPoint x="580" y="190" as="sourcePoint" />
            <mxPoint x="630" y="60" as="targetPoint" />
            <Array as="points">
              <mxPoint x="580" y="60" />
            </Array>
          </mxGeometry>
        </mxCell>
        <mxCell id="EPbkJp4kcHKTeBEqlPCA-35" value="Promote Tournament / League Service" style="text;html=1;strokeColor=none;fillColor=none;align=center;verticalAlign=middle;whiteSpace=wrap;rounded=0;" parent="1" vertex="1">
          <mxGeometry x="710" y="40" width="100" height="40" as="geometry" />
        </mxCell>
        <mxCell id="EPbkJp4kcHKTeBEqlPCA-37" value="" style="endArrow=none;dashed=1;html=1;dashPattern=1 3;strokeWidth=2;rounded=0;entryX=0.5;entryY=1;entryDx=0;entryDy=0;entryPerimeter=0;exitX=0.75;exitY=0;exitDx=0;exitDy=0;exitPerimeter=0;" parent="1" source="EPbkJp4kcHKTeBEqlPCA-16" target="EPbkJp4kcHKTeBEqlPCA-30" edge="1">
          <mxGeometry width="50" height="50" relative="1" as="geometry">
            <mxPoint x="490" y="190" as="sourcePoint" />
            <mxPoint x="770" y="100" as="targetPoint" />
            <Array as="points">
              <mxPoint x="480" y="120" />
              <mxPoint x="760" y="120" />
            </Array>
          </mxGeometry>
        </mxCell>
        <mxCell id="EPbkJp4kcHKTeBEqlPCA-38" value="" style="sketch=0;pointerEvents=1;shadow=0;dashed=0;html=1;strokeColor=none;labelPosition=center;verticalLabelPosition=bottom;verticalAlign=top;outlineConnect=0;align=center;shape=mxgraph.office.users.users;fillColor=#DA4026;" parent="1" vertex="1">
          <mxGeometry x="640" y="280" width="40" height="40" as="geometry" />
        </mxCell>
        <mxCell id="EPbkJp4kcHKTeBEqlPCA-39" value="&lt;b&gt;Sponsors Looking for Advertisement platform&lt;/b&gt;" style="text;html=1;strokeColor=none;fillColor=none;align=center;verticalAlign=middle;whiteSpace=wrap;rounded=0;" parent="1" vertex="1">
          <mxGeometry x="600" y="335" width="130" height="30" as="geometry" />
        </mxCell>
        <mxCell id="EPbkJp4kcHKTeBEqlPCA-43" value="" style="ellipse;whiteSpace=wrap;html=1;aspect=fixed;fillColor=#fff2cc;strokeColor=#d6b656;" parent="1" vertex="1">
          <mxGeometry x="435" y="440" width="70" height="70" as="geometry" />
        </mxCell>
        <mxCell id="EPbkJp4kcHKTeBEqlPCA-45" value="&lt;font color=&quot;#0000ff&quot;&gt;&lt;b&gt;Show Ad &amp;amp; Earn&lt;/b&gt;&lt;/font&gt;" style="text;html=1;strokeColor=none;fillColor=none;align=center;verticalAlign=middle;whiteSpace=wrap;rounded=0;" parent="1" vertex="1">
          <mxGeometry x="440" y="460" width="60" height="30" as="geometry" />
        </mxCell>
        <mxCell id="EPbkJp4kcHKTeBEqlPCA-51" value="" style="rounded=1;whiteSpace=wrap;html=1;fillColor=#f5f5f5;fontColor=#333333;strokeColor=#666666;" parent="1" vertex="1">
          <mxGeometry x="410" y="580" width="120" height="60" as="geometry" />
        </mxCell>
        <mxCell id="EPbkJp4kcHKTeBEqlPCA-52" value="Advertisement Service" style="text;html=1;strokeColor=none;fillColor=none;align=center;verticalAlign=middle;whiteSpace=wrap;rounded=0;" parent="1" vertex="1">
          <mxGeometry x="420" y="590" width="100" height="40" as="geometry" />
        </mxCell>
        <mxCell id="EPbkJp4kcHKTeBEqlPCA-54" value="" style="ellipse;whiteSpace=wrap;html=1;aspect=fixed;fillColor=#d5e8d4;strokeColor=#82b366;" parent="1" vertex="1">
          <mxGeometry x="635" y="480" width="50" height="50" as="geometry" />
        </mxCell>
        <mxCell id="EPbkJp4kcHKTeBEqlPCA-55" value="" style="endArrow=classic;html=1;rounded=0;exitX=0.454;exitY=1.167;exitDx=0;exitDy=0;exitPerimeter=0;" parent="1" source="EPbkJp4kcHKTeBEqlPCA-39" edge="1">
          <mxGeometry width="50" height="50" relative="1" as="geometry">
            <mxPoint x="660" y="380" as="sourcePoint" />
            <mxPoint x="660" y="480" as="targetPoint" />
          </mxGeometry>
        </mxCell>
        <mxCell id="EPbkJp4kcHKTeBEqlPCA-56" value="&lt;font color=&quot;#006600&quot;&gt;&lt;b&gt;Paid&lt;/b&gt;&lt;/font&gt;" style="text;html=1;strokeColor=none;fillColor=none;align=center;verticalAlign=middle;whiteSpace=wrap;rounded=0;" parent="1" vertex="1">
          <mxGeometry x="630" y="490" width="60" height="30" as="geometry" />
        </mxCell>
        <mxCell id="EPbkJp4kcHKTeBEqlPCA-57" value="" style="endArrow=classic;html=1;rounded=0;exitX=0.5;exitY=1;exitDx=0;exitDy=0;" parent="1" source="EPbkJp4kcHKTeBEqlPCA-54" edge="1">
          <mxGeometry width="50" height="50" relative="1" as="geometry">
            <mxPoint x="640" y="580" as="sourcePoint" />
            <mxPoint x="530" y="620" as="targetPoint" />
            <Array as="points">
              <mxPoint x="660" y="620" />
            </Array>
          </mxGeometry>
        </mxCell>
        <mxCell id="EPbkJp4kcHKTeBEqlPCA-60" value="" style="sketch=0;pointerEvents=1;shadow=0;dashed=0;html=1;strokeColor=none;labelPosition=center;verticalLabelPosition=bottom;verticalAlign=top;outlineConnect=0;align=center;shape=mxgraph.office.concepts.home;fillColor=#7FBA42;" parent="1" vertex="1">
          <mxGeometry x="398" y="45" width="45" height="30" as="geometry" />
        </mxCell>
        <mxCell id="EPbkJp4kcHKTeBEqlPCA-61" value="" style="rounded=1;whiteSpace=wrap;html=1;fillColor=#f5f5f5;fontColor=#333333;strokeColor=#666666;" parent="1" vertex="1">
          <mxGeometry x="210" y="40" width="100" height="45" as="geometry" />
        </mxCell>
        <mxCell id="EPbkJp4kcHKTeBEqlPCA-62" value="Venue Booking Service" style="text;html=1;strokeColor=none;fillColor=none;align=center;verticalAlign=middle;whiteSpace=wrap;rounded=0;" parent="1" vertex="1">
          <mxGeometry x="215" y="47.5" width="90" height="35" as="geometry" />
        </mxCell>
        <mxCell id="EPbkJp4kcHKTeBEqlPCA-63" value="" style="endArrow=classic;html=1;rounded=0;exitX=0.5;exitY=0;exitDx=0;exitDy=0;exitPerimeter=0;entryX=0;entryY=0.5;entryDx=0;entryDy=0;" parent="1" source="EPbkJp4kcHKTeBEqlPCA-3" target="EPbkJp4kcHKTeBEqlPCA-67" edge="1">
          <mxGeometry width="50" height="50" relative="1" as="geometry">
            <mxPoint x="40" y="190" as="sourcePoint" />
            <mxPoint x="100" y="90" as="targetPoint" />
            <Array as="points">
              <mxPoint x="40" y="65" />
            </Array>
          </mxGeometry>
        </mxCell>
        <mxCell id="EPbkJp4kcHKTeBEqlPCA-64" value="" style="endArrow=classic;html=1;rounded=0;entryX=0;entryY=0.5;entryDx=0;entryDy=0;" parent="1" source="EPbkJp4kcHKTeBEqlPCA-3" target="EPbkJp4kcHKTeBEqlPCA-6" edge="1">
          <mxGeometry width="50" height="50" relative="1" as="geometry">
            <mxPoint x="130" y="260" as="sourcePoint" />
            <mxPoint x="180" y="210" as="targetPoint" />
          </mxGeometry>
        </mxCell>
        <mxCell id="EPbkJp4kcHKTeBEqlPCA-65" value="&lt;b&gt;Sports Venue&lt;/b&gt;" style="text;html=1;strokeColor=none;fillColor=none;align=center;verticalAlign=middle;whiteSpace=wrap;rounded=0;" parent="1" vertex="1">
          <mxGeometry x="390" y="82.5" width="60" height="30" as="geometry" />
        </mxCell>
        <mxCell id="EPbkJp4kcHKTeBEqlPCA-66" value="" style="endArrow=classic;html=1;rounded=0;entryX=-0.044;entryY=0.6;entryDx=0;entryDy=0;entryPerimeter=0;" parent="1" target="EPbkJp4kcHKTeBEqlPCA-60" edge="1">
          <mxGeometry width="50" height="50" relative="1" as="geometry">
            <mxPoint x="310" y="63" as="sourcePoint" />
            <mxPoint x="390" y="65" as="targetPoint" />
          </mxGeometry>
        </mxCell>
        <mxCell id="EPbkJp4kcHKTeBEqlPCA-67" value="" style="ellipse;whiteSpace=wrap;html=1;aspect=fixed;fillColor=#d5e8d4;strokeColor=#82b366;" parent="1" vertex="1">
          <mxGeometry x="100" y="40" width="50" height="50" as="geometry" />
        </mxCell>
        <mxCell id="EPbkJp4kcHKTeBEqlPCA-68" value="&lt;b&gt;&lt;font color=&quot;#006600&quot;&gt;Paid&lt;/font&gt;&lt;/b&gt;" style="text;html=1;strokeColor=none;fillColor=none;align=center;verticalAlign=middle;whiteSpace=wrap;rounded=0;" parent="1" vertex="1">
          <mxGeometry x="95" y="50" width="60" height="30" as="geometry" />
        </mxCell>
        <mxCell id="EPbkJp4kcHKTeBEqlPCA-69" value="" style="endArrow=classic;html=1;rounded=0;" parent="1" edge="1">
          <mxGeometry width="50" height="50" relative="1" as="geometry">
            <mxPoint x="150" y="63" as="sourcePoint" />
            <mxPoint x="210" y="63" as="targetPoint" />
          </mxGeometry>
        </mxCell>
        <mxCell id="EPbkJp4kcHKTeBEqlPCA-70" value="" style="endArrow=classic;html=1;rounded=0;exitX=0.4;exitY=0;exitDx=0;exitDy=0;exitPerimeter=0;" parent="1" source="EPbkJp4kcHKTeBEqlPCA-24" target="EPbkJp4kcHKTeBEqlPCA-60" edge="1">
          <mxGeometry width="50" height="50" relative="1" as="geometry">
            <mxPoint x="570" y="180" as="sourcePoint" />
            <mxPoint x="440" y="90" as="targetPoint" />
            <Array as="points">
              <mxPoint x="570" y="60" />
            </Array>
          </mxGeometry>
        </mxCell>
        <mxCell id="EPbkJp4kcHKTeBEqlPCA-72" value="" style="endArrow=classic;startArrow=classic;html=1;rounded=0;exitX=0.5;exitY=0;exitDx=0;exitDy=0;" parent="1" source="EPbkJp4kcHKTeBEqlPCA-43" edge="1">
          <mxGeometry width="50" height="50" relative="1" as="geometry">
            <mxPoint x="440" y="410" as="sourcePoint" />
            <mxPoint x="470" y="360" as="targetPoint" />
          </mxGeometry>
        </mxCell>
        <mxCell id="EPbkJp4kcHKTeBEqlPCA-73" value="" style="endArrow=classic;startArrow=classic;html=1;rounded=0;exitX=0.5;exitY=0;exitDx=0;exitDy=0;" parent="1" source="EPbkJp4kcHKTeBEqlPCA-51" edge="1">
          <mxGeometry width="50" height="50" relative="1" as="geometry">
            <mxPoint x="469.5" y="590" as="sourcePoint" />
            <mxPoint x="469.5" y="510" as="targetPoint" />
          </mxGeometry>
        </mxCell>
        <mxCell id="EPbkJp4kcHKTeBEqlPCA-77" value="" style="rounded=1;whiteSpace=wrap;html=1;fillColor=#f5f5f5;strokeColor=#666666;fontColor=#333333;" parent="1" vertex="1">
          <mxGeometry x="205" y="360" width="100" height="40" as="geometry" />
        </mxCell>
        <mxCell id="EPbkJp4kcHKTeBEqlPCA-78" value="Sport News/Content" style="text;html=1;strokeColor=none;fillColor=none;align=center;verticalAlign=middle;whiteSpace=wrap;rounded=0;" parent="1" vertex="1">
          <mxGeometry x="225" y="365" width="60" height="30" as="geometry" />
        </mxCell>
        <mxCell id="EPbkJp4kcHKTeBEqlPCA-79" value="" style="endArrow=classic;html=1;rounded=0;" parent="1" edge="1">
          <mxGeometry width="50" height="50" relative="1" as="geometry">
            <mxPoint x="40" y="280" as="sourcePoint" />
            <mxPoint x="80" y="380" as="targetPoint" />
            <Array as="points">
              <mxPoint x="40" y="380" />
            </Array>
          </mxGeometry>
        </mxCell>
        <mxCell id="EPbkJp4kcHKTeBEqlPCA-81" value="" style="endArrow=classic;html=1;rounded=0;exitX=0;exitY=0.75;exitDx=0;exitDy=0;" parent="1" source="EPbkJp4kcHKTeBEqlPCA-51" edge="1">
          <mxGeometry width="50" height="50" relative="1" as="geometry">
            <mxPoint x="230" y="450" as="sourcePoint" />
            <mxPoint x="260" y="400" as="targetPoint" />
            <Array as="points">
              <mxPoint x="260" y="625" />
            </Array>
          </mxGeometry>
        </mxCell>
        <mxCell id="oAzMthXAfiw33Onyk6M_-2" value="" style="shape=hexagon;perimeter=hexagonPerimeter2;whiteSpace=wrap;html=1;fixedSize=1;fillColor=#fff2cc;strokeColor=#d6b656;" parent="1" vertex="1">
          <mxGeometry x="80" y="360" width="85" height="40" as="geometry" />
        </mxCell>
        <mxCell id="oAzMthXAfiw33Onyk6M_-3" value="" style="sketch=0;pointerEvents=1;shadow=0;dashed=0;html=1;strokeColor=none;labelPosition=center;verticalLabelPosition=bottom;verticalAlign=top;outlineConnect=0;align=center;shape=mxgraph.office.users.users;fillColor=#2072B8;" parent="1" vertex="1">
          <mxGeometry x="70" y="455" width="40" height="40" as="geometry" />
        </mxCell>
        <mxCell id="oAzMthXAfiw33Onyk6M_-4" value="&lt;b&gt;Content creation Team&lt;/b&gt;" style="text;html=1;strokeColor=none;fillColor=none;align=center;verticalAlign=middle;whiteSpace=wrap;rounded=0;" parent="1" vertex="1">
          <mxGeometry x="45" y="495" width="90" height="30" as="geometry" />
        </mxCell>
        <mxCell id="oAzMthXAfiw33Onyk6M_-6" value="" style="endArrow=classic;html=1;rounded=0;exitX=1;exitY=0.5;exitDx=0;exitDy=0;entryX=0;entryY=0.5;entryDx=0;entryDy=0;" parent="1" source="oAzMthXAfiw33Onyk6M_-2" target="EPbkJp4kcHKTeBEqlPCA-77" edge="1">
          <mxGeometry width="50" height="50" relative="1" as="geometry">
            <mxPoint x="160" y="370" as="sourcePoint" />
            <mxPoint x="210" y="320" as="targetPoint" />
          </mxGeometry>
        </mxCell>
        <mxCell id="oAzMthXAfiw33Onyk6M_-7" value="&lt;font color=&quot;#0000ff&quot;&gt;&lt;b&gt;Consume&lt;/b&gt;&lt;/font&gt;" style="text;html=1;strokeColor=none;fillColor=none;align=center;verticalAlign=middle;whiteSpace=wrap;rounded=0;" parent="1" vertex="1">
          <mxGeometry x="95" y="365" width="60" height="30" as="geometry" />
        </mxCell>
        <mxCell id="oAzMthXAfiw33Onyk6M_-11" value="" style="shape=flexArrow;endArrow=classic;html=1;rounded=0;entryX=0.25;entryY=1;entryDx=0;entryDy=0;" parent="1" target="EPbkJp4kcHKTeBEqlPCA-77" edge="1">
          <mxGeometry width="50" height="50" relative="1" as="geometry">
            <mxPoint x="120" y="480" as="sourcePoint" />
            <mxPoint x="225" y="410" as="targetPoint" />
            <Array as="points">
              <mxPoint x="230" y="480" />
            </Array>
          </mxGeometry>
        </mxCell>
        <mxCell id="Pgv-1m_Mmh01GOw6BaZE-1" value="" style="rounded=1;whiteSpace=wrap;html=1;fillColor=#f5f5f5;fontColor=#333333;strokeColor=#666666;" vertex="1" parent="1">
          <mxGeometry x="210" y="280" width="90" height="40" as="geometry" />
        </mxCell>
        <mxCell id="Pgv-1m_Mmh01GOw6BaZE-2" value="Hire Umpire/ Professional" style="text;html=1;strokeColor=none;fillColor=none;align=center;verticalAlign=middle;whiteSpace=wrap;rounded=0;" vertex="1" parent="1">
          <mxGeometry x="220" y="285" width="70" height="30" as="geometry" />
        </mxCell>
        <mxCell id="Pgv-1m_Mmh01GOw6BaZE-3" value="" style="endArrow=classic;html=1;rounded=0;" edge="1" parent="1">
          <mxGeometry width="50" height="50" relative="1" as="geometry">
            <mxPoint x="440" y="240" as="sourcePoint" />
            <mxPoint x="360" y="270" as="targetPoint" />
            <Array as="points">
              <mxPoint x="360" y="240" />
            </Array>
          </mxGeometry>
        </mxCell>
        <mxCell id="Pgv-1m_Mmh01GOw6BaZE-4" value="" style="ellipse;whiteSpace=wrap;html=1;aspect=fixed;fillColor=#d5e8d4;strokeColor=#82b366;" vertex="1" parent="1">
          <mxGeometry x="335" y="270" width="50" height="50" as="geometry" />
        </mxCell>
        <mxCell id="Pgv-1m_Mmh01GOw6BaZE-5" value="&lt;font color=&quot;#006600&quot;&gt;&lt;b&gt;Paid&lt;/b&gt;&lt;/font&gt;" style="text;html=1;strokeColor=none;fillColor=none;align=center;verticalAlign=middle;whiteSpace=wrap;rounded=0;" vertex="1" parent="1">
          <mxGeometry x="330" y="280" width="60" height="30" as="geometry" />
        </mxCell>
        <mxCell id="Pgv-1m_Mmh01GOw6BaZE-7" value="" style="endArrow=classic;html=1;rounded=0;entryX=1;entryY=0.5;entryDx=0;entryDy=0;" edge="1" parent="1" target="Pgv-1m_Mmh01GOw6BaZE-1">
          <mxGeometry width="50" height="50" relative="1" as="geometry">
            <mxPoint x="330" y="300" as="sourcePoint" />
            <mxPoint x="310" y="300" as="targetPoint" />
          </mxGeometry>
        </mxCell>
      </root>
    </mxGraphModel>
  </diagram>
</mxfile>
